<svg class="railroad-diagram" data-type="Diagram" data-updown="11 0 11" height="62" viewBox="0 0 279.0 62" width="279.0">
<g transform="translate(.5 .5)">
<g data-type="Start" data-updown="10 0 10">
<g>
<path d="M20 21v20m10 -20v20m-10 -10h20" /></g><rect class="debug-bounds" height="20" style="fill:none;stroke:red;stroke-width:1;stroke-dasharray:3 2;pointer-events:none" width="20" x="20" y="21" /></g><path d="M40 31h10" /><g data-type="NonTerminal" data-updown="11 0 11">
<g class="non-terminal ">
<path d="M50 31h0.0" /><path d="M180.5 31h0.0" /><rect height="22" width="130.5" x="50" y="20"></rect><text x="115.25" y="35">&lt;ident-token&gt;</text></g><rect class="debug-bounds" height="22" style="fill:none;stroke:red;stroke-width:1;stroke-dasharray:3 2;pointer-events:none" width="130.5" x="50" y="20" /></g><path d="M180.5 31h10" /><path d="M190.5 31h10" /><g data-type="Terminal" data-updown="11 0 11">
<g class="terminal ">
<path d="M200.5 31h0.0" /><path d="M229.0 31h0.0" /><rect height="22" rx="10" ry="10" width="28.5" x="200.5" y="20"></rect><text x="214.75" y="35">(</text></g><rect class="debug-bounds" height="22" style="fill:none;stroke:red;stroke-width:1;stroke-dasharray:3 2;pointer-events:none" width="28.5" x="200.5" y="20" /></g><path d="M229.0 31h10" /><g data-type="End" data-updown="10 0 10">
<path d="M 239.0 31 h 20 m -10 -10 v 20 m 10 -20 v 20"></path><rect class="debug-bounds" height="20" style="fill:none;stroke:red;stroke-width:1;stroke-dasharray:3 2;pointer-events:none" width="20" x="239" y="21" /></g></g></svg>