<svg class="railroad-diagram" data-type="Diagram" data-updown="11 0 131" height="182" viewBox="0 0 267.5 182" width="267.5">
<g transform="translate(.5 .5)">
<g data-type="Start" data-updown="10 0 10">
<g>
<path d="M20 21v20m10 -20v20m-10 -10h20" /></g><rect class="debug-bounds" height="20" style="fill:none;stroke:red;stroke-width:1;stroke-dasharray:3 2;pointer-events:none" width="20" x="20" y="21" /></g><g data-type="Choice" data-updown="11 0 131">
<g>
<path d="M40 31h0.0" /><path d="M227.5 31h0.0" /><path d="M40.0 31h20" /><g data-type="NonTerminal" data-updown="11 0 11">
<g class="non-terminal ">
<path d="M60.0 31h0.0" /><path d="M207.5 31h0.0" /><rect height="22" width="147.5" x="60" y="20"></rect><text x="133.75" y="35">Preserved token</text></g><rect class="debug-bounds" height="22" style="fill:none;stroke:red;stroke-width:1;stroke-dasharray:3 2;pointer-events:none" width="147.5" x="60" y="20" /></g><path d="M207.5 31h20" /><path d="M40.0 31a10 10 0 0 1 10 10v10a10 10 0 0 0 10 10" /><g data-type="NonTerminal" data-updown="11 0 11">
<g class="non-terminal ">
<path d="M60.0 61h29.75" /><path d="M177.75 61h29.75" /><rect height="22" width="88" x="89.75" y="50"></rect><text x="133.75" y="65">{} block</text></g><rect class="debug-bounds" height="22" style="fill:none;stroke:red;stroke-width:1;stroke-dasharray:3 2;pointer-events:none" width="147.5" x="60" y="50" /></g><path d="M207.5 61a10 10 0 0 0 10 -10v-10a10 10 0 0 1 10 -10" /><path d="M40.0 31a10 10 0 0 1 10 10v40a10 10 0 0 0 10 10" /><g data-type="NonTerminal" data-updown="11 0 11">
<g class="non-terminal ">
<path d="M60.0 91h29.75" /><path d="M177.75 91h29.75" /><rect height="22" width="88" x="89.75" y="80"></rect><text x="133.75" y="95">() block</text></g><rect class="debug-bounds" height="22" style="fill:none;stroke:red;stroke-width:1;stroke-dasharray:3 2;pointer-events:none" width="147.5" x="60" y="80" /></g><path d="M207.5 91a10 10 0 0 0 10 -10v-40a10 10 0 0 1 10 -10" /><path d="M40.0 31a10 10 0 0 1 10 10v70a10 10 0 0 0 10 10" /><g data-type="NonTerminal" data-updown="11 0 11">
<g class="non-terminal ">
<path d="M60.0 121h29.75" /><path d="M177.75 121h29.75" /><rect height="22" width="88" x="89.75" y="110"></rect><text x="133.75" y="125">[] block</text></g><rect class="debug-bounds" height="22" style="fill:none;stroke:red;stroke-width:1;stroke-dasharray:3 2;pointer-events:none" width="147.5" x="60" y="110" /></g><path d="M207.5 121a10 10 0 0 0 10 -10v-70a10 10 0 0 1 10 -10" /><path d="M40.0 31a10 10 0 0 1 10 10v100a10 10 0 0 0 10 10" /><g data-type="NonTerminal" data-updown="11 0 11">
<g class="non-terminal ">
<path d="M60.0 151h4.25" /><path d="M203.25 151h4.25" /><rect height="22" width="139" x="64.25" y="140"></rect><text x="133.75" y="155">Function block</text></g><rect class="debug-bounds" height="22" style="fill:none;stroke:red;stroke-width:1;stroke-dasharray:3 2;pointer-events:none" width="147.5" x="60" y="140" /></g><path d="M207.5 151a10 10 0 0 0 10 -10v-100a10 10 0 0 1 10 -10" /></g><rect class="debug-bounds" height="142" style="fill:none;stroke:red;stroke-width:1;stroke-dasharray:3 2;pointer-events:none" width="187.5" x="40" y="20" /></g><g data-type="End" data-updown="10 0 10">
<path d="M 227.5 31 h 20 m -10 -10 v 20 m 10 -20 v 20"></path><rect class="debug-bounds" height="20" style="fill:none;stroke:red;stroke-width:1;stroke-dasharray:3 2;pointer-events:none" width="20" x="227.5" y="21" /></g></g></svg>