<svg class="railroad-diagram" height="90" viewBox="0 0 138.28 90" width="138.28">
<g transform="translate(.5 .5)">
<g>
<path d="M20 35v20m10 -20v20m-10 -10h20" /></g><g>
<path d="M40 45" /><path d="M98.28 45" /><path d="M40 45a10 10 0 0 0 10 -10v-5a10 10 0 0 1 10 -10" /><g>
<path d="M60 20h18.28" /></g><path d="M78.28 20a10 10 0 0 1 10 10v5a10 10 0 0 0 10 10" /><path d="M40 45a10 10 0 0 1 10 10v5a10 10 0 0 0 10 10" /><g>
<path d="M60 70h18.28" /></g><path d="M78.28 70a10 10 0 0 0 10 -10v-5a10 10 0 0 1 10 -10" /><path d="M50 30a10 10 0 0 0 10 10h0a 10 10 0 0 1 7.07 2.93l4.14 4.14a 10 10 0 0 0 7.07 2.93h0a10 10 0 0 1 10 10" /><path d="M50 60a10 10 0 0 1 10 -10h0a 10 10 0 0 0 7.07 -2.93l4.14 -4.14a 10 10 0 0 1 7.07 -2.93h0a10 10 0 0 0 10 -10" /></g><path d="M98.28 45h20m-10 -10v20m10 -20v20"></path></g></svg>