<svg class="railroad-diagram" height="197" viewBox="0 0 245.5 197" width="245.5" xmlns="http://www.w3.org/2000/svg" xmlns:xlink="http://www.w3.org/1999/xlink">
<g transform="translate(.5 .5)">
<g>
<path d="M20 36v20m10 -20v20m-10 -10h20" /></g><g>
<path d="M40 46h0.0" /><path d="M205.5 46h0.0" /><path d="M40.0 46h20" /><g>
<path d="M60.0 46h0.0" /><path d="M185.5 46h0.0" /><rect class="group-box" height="111" rx="10" ry="10" width="125.5" x="60" y="36"></rect><g>
<path d="M60.0 46h0.0" /><path d="M185.5 46h0.0" /><path d="M60.0 46h20" /><g>
<path d="M80.0 46h85.5" /></g><path d="M165.5 46h20" /><path d="M60.0 46a10 10 0 0 1 10 10v23a10 10 0 0 0 10 10" /><g>
<path d="M80.0 89h0.0" /><path d="M165.5 129h0.0" /><rect class="group-box" height="69" rx="10" ry="10" width="85.5" x="80" y="70"></rect><g>
<path d="M80.0 89h0.0" /><path d="M80.0 89h10" /><g class="terminal ">
<path d="M90.0 89h10.0" /><path d="M145.5 89h10.0" /><rect height="22" rx="10" ry="10" width="45.5" x="100" y="78"></rect><text x="122.75" y="93">abc</text></g><path d="M155.5 89a10 10 0 0 1 10 10v0a10 10 0 0 1 -10 10h-65.5a10 10 0 0 0 -10 10v0a10 10 0 0 0 10 10" /><g>
<path d="M90.0 129h65.5" /></g><path d="M155.5 129h10" /><path d="M165.5 129h0.0" /></g><g class="comment non-terminal ">
<path d="M80.0 62h0" /><path d="M125.0 62h0" /><text class="comment" x="102" y="66">inner</text></g></g><path d="M165.5 129a10 10 0 0 0 10 -10v-63a10 10 0 0 1 10 -10" /></g><g class="comment non-terminal ">
<path d="M60.0 28h0" /><path d="M91.0 28h0" /><text class="comment" x="75" y="32">top</text></g></g><path d="M185.5 46h20" /><path d="M40.0 46a10 10 0 0 1 10 10v100a10 10 0 0 0 10 10" /><g class="terminal ">
<path d="M60.0 166h40.0" /><path d="M145.5 166h40.0" /><rect height="22" rx="10" ry="10" width="45.5" x="100" y="155"></rect><text x="122.75" y="170">xyz</text></g><path d="M185.5 166a10 10 0 0 0 10 -10v-100a10 10 0 0 1 10 -10" /></g><path d="M 205.5 46 h 20 m -10 -10 v 20 m 10 -20 v 20"></path></g><style>/* <![CDATA[ */
* {
  color: #333333;
}
svg.railroad-diagram {
  background-color: white;
}
svg.railroad-diagram path {
  stroke-width:3;
  stroke:black;
  fill:rgba(0,0,0,0);
}
svg.railroad-diagram text {
  font:bold 14px monospace;
  text-anchor:middle;
  white-space: pre;
}
svg.railroad-diagram text.diagram-text {
  font-size: 12px;
}
svg.railroad-diagram text.diagram-arrow {
  font-size: 16px;
}
svg.railroad-diagram path.diagram-text {
  stroke-width: 3;
  stroke: #333333;
  fill: white;
  cursor: help;
}
svg.railroad-diagram g.diagram-text:hover path.diagram-text {
  fill: #eee;
}
svg.railroad-diagram text.label {
  text-anchor:start;
}
svg.railroad-diagram text.comment {
  font:italic 12px monospace;
}
svg.railroad-diagram rect {
  stroke-width:3;
  stroke: #333333;
  fill:hsl(120,100%,90%);
}
svg.railroad-diagram path {
  stroke: #333333;
}
svg.railroad-diagram .terminal rect {
  fill: hsl(190, 100%, 83%);
}
svg.railroad-diagram .non-terminal rect {
  fill: hsl(223, 100%, 83%);
}
svg.railroad-diagram rect.group-box {
  stroke: gray;
  stroke-dasharray: 10 5;
  fill: none;
}

/* ]]> */
</style></svg>