<svg class="railroad-diagram" height="80" viewBox="0 0 512.0 80" width="512.0" xmlns="http://www.w3.org/2000/svg" xmlns:xlink="http://www.w3.org/1999/xlink">
<g transform="translate(.5 .5)">
<g>
<path d="M20 30v20m10 -20v20m-10 -10h20" /></g><path d="M40 40h10" /><g class="non-terminal ">
<path d="M50 40h0.0" /><path d="M206.0 40h0.0" /><rect height="22" width="156" x="50" y="29"></rect><text x="128" y="44">&lt;function-token&gt;</text></g><path d="M206.0 40h10" /><g>
<path d="M216.0 40h0.0" /><path d="M423.5 40h0.0" /><path d="M216.0 40a10 10 0 0 0 10 -10v0a10 10 0 0 1 10 -10" /><g>
<path d="M236.0 20h167.5" /></g><path d="M403.5 20a10 10 0 0 1 10 10v0a10 10 0 0 0 10 10" /><path d="M216.0 40h20" /><g>
<path d="M236.0 40h0.0" /><path d="M403.5 40h0.0" /><path d="M236.0 40h10" /><g class="non-terminal ">
<path d="M246.0 40h0.0" /><path d="M393.5 40h0.0" /><rect height="22" width="147.5" x="246" y="29"></rect><text x="319.75" y="44">Component value</text></g><path d="M393.5 40h10" /><path d="M246.0 40a10 10 0 0 0 -10 10v0a10 10 0 0 0 10 10" /><g>
<path d="M246.0 60h147.5" /></g><path d="M393.5 60a10 10 0 0 0 10 -10v0a10 10 0 0 0 -10 -10" /></g><path d="M403.5 40h20" /></g><path d="M423.5 40h10" /><g class="terminal ">
<path d="M433.5 40h0.0" /><path d="M462.0 40h0.0" /><rect height="22" rx="10" ry="10" width="28.5" x="433.5" y="29"></rect><text x="447.75" y="44">)</text></g><path d="M462.0 40h10" /><path d="M 472.0 40 h 20 m -10 -10 v 20 m 10 -20 v 20"></path></g><style>/* <![CDATA[ */
* {
  color: #333333;
}
svg.railroad-diagram {
  background-color: white;
}
svg.railroad-diagram path {
  stroke-width:3;
  stroke:black;
  fill:rgba(0,0,0,0);
}
svg.railroad-diagram text {
  font:bold 14px monospace;
  text-anchor:middle;
}
svg.railroad-diagram text.label {
  text-anchor:start;
}
svg.railroad-diagram text.comment {
  font:italic 12px monospace;
}
svg.railroad-diagram rect {
  stroke-width:3;
  stroke: #333333;
  fill:hsl(120,100%,90%);
}
svg.railroad-diagram path {
  stroke: #333333;
}
svg.railroad-diagram .terminal rect {
  fill: hsl(190, 100%, 83%);
}
svg.railroad-diagram .non-terminal rect {
  fill: hsl(223, 100%, 83%);
}
svg.railroad-diagram rect.group-box {
  stroke: gray;
  stroke-dasharray: 10 5;
  fill: none;
}

/* ]]> */
</style></svg>